<svg width="126" height="113" viewBox="0 0 126 113" fill="none" xmlns="http://www.w3.org/2000/svg">
<path d="M0.603516 66.4589C0.603516 56.9642 2.09064 48.1559 5.06488 40.0339C8.15351 32.0263 12.5005 25.0483 18.1058 19.0998C23.7111 13.2658 30.2887 8.69003 37.8387 5.37261C45.503 2.0552 53.911 0.396484 63.0625 0.396484C72.214 0.396485 80.5647 2.05519 88.1147 5.37261C95.7791 8.69003 102.414 13.2658 108.019 19.0999C113.625 25.0483 117.914 32.0264 120.888 40.0339C123.977 48.1559 125.521 56.9642 125.521 66.4589C125.521 77.5551 123.577 87.4501 119.687 96.144C117.747 100.539 115.379 104.563 112.584 108.218C107.839 114.423 98.7891 113.595 93.5482 107.803C87.9459 101.611 89.0011 92.16 93.0972 84.8834C93.3328 84.4648 93.5595 84.043 93.7772 83.6179C96.1795 79.0422 97.3806 73.8945 97.3806 68.1748C97.3806 63.2558 96.5798 58.7373 94.9783 54.6191C93.3768 50.5009 91.0317 46.9547 87.9431 43.9805C84.9689 41.1206 81.3655 38.8328 77.1329 37.1169C72.9003 35.5154 68.2102 34.7146 63.0625 34.7146C57.9148 34.7146 53.2246 35.5153 48.9921 37.1169C44.7595 38.8328 41.0989 41.1206 38.0103 43.9805C35.036 46.9547 32.7482 50.5009 31.1466 54.6191C29.5451 58.7373 28.7444 63.2558 28.7444 68.1748C28.7444 73.8944 29.9455 79.0422 32.3478 83.6179C32.574 84.0596 32.8098 84.4977 33.0553 84.9322C37.1474 92.1759 38.1961 101.592 32.6143 107.761C27.3634 113.565 18.2971 114.35 13.5549 108.124C10.7906 104.494 8.41815 100.501 6.43761 96.144C2.54823 87.4501 0.603515 77.555 0.603516 66.4589Z" fill="url(#paint0_linear_405_17)"/>
<path d="M73.6081 108.218C70.1531 108.218 67.3522 105.417 67.3522 101.962C67.3522 98.5069 70.1531 95.7061 73.6081 95.7061C77.0632 95.7061 79.8641 98.5069 79.8641 101.962C79.8641 105.417 77.0632 108.218 73.6081 108.218Z" fill="url(#paint1_linear_405_17)"/>
<path d="M52.1593 108.218C48.7043 108.218 45.9034 105.417 45.9034 101.962C45.9034 98.5069 48.7043 95.7061 52.1593 95.7061C55.6144 95.7061 58.4152 98.5069 58.4152 101.962C58.4152 105.417 55.6144 108.218 52.1593 108.218Z" fill="url(#paint2_linear_405_17)"/>
<defs>
<linearGradient id="paint0_linear_405_17" x1="88.0089" y1="-12.3677" x2="-35.5727" y2="107.638" gradientUnits="userSpaceOnUse">
<stop stop-color="#DB1DFB"/>
<stop offset="1" stop-color="#6583EB"/>
</linearGradient>
<linearGradient id="paint1_linear_405_17" x1="83.6035" y1="84.832" x2="61.1035" y2="112.332" gradientUnits="userSpaceOnUse">
<stop stop-color="#DB1DFB"/>
<stop offset="1" stop-color="#6583EB"/>
</linearGradient>
<linearGradient id="paint2_linear_405_17" x1="66.6035" y1="80.832" x2="37.1035" y2="115.332" gradientUnits="userSpaceOnUse">
<stop stop-color="#DB1DFB"/>
<stop offset="1" stop-color="#6583EB"/>
</linearGradient>
</defs>
</svg>
