<svg width="162" height="36" viewBox="0 0 162 36" fill="none" xmlns="http://www.w3.org/2000/svg">
<path d="M0.40625 35V5.70312H7.51562V8.96484C7.85417 7.83203 8.45312 6.94661 9.3125 6.30859C10.1719 5.67057 11.2526 5.35156 12.5547 5.35156V11.1914C11.9818 11.1914 11.2982 11.2565 10.5039 11.3867C9.70964 11.5039 9.01302 11.6732 8.41406 11.8945C7.8151 12.1029 7.51562 12.3372 7.51562 12.5977V35H0.40625ZM19.6055 35.3125C17.9779 35.3125 16.7344 34.9349 15.875 34.1797C15.0286 33.4245 14.4492 32.3893 14.1367 31.0742C13.8242 29.7591 13.668 28.2682 13.668 26.6016C13.668 24.8177 13.8438 23.3594 14.1953 22.2266C14.5469 21.0807 15.1458 20.1432 15.9922 19.4141C16.8516 18.6849 18.0299 18.0664 19.5273 17.5586L23.8633 16.0742V13.0664C23.8633 11.4909 23.349 10.7031 22.3203 10.7031C21.3828 10.7031 20.9141 11.3411 20.9141 12.6172V14.375H14.1172C14.1042 14.2708 14.0977 14.1406 14.0977 13.9844C14.0977 13.8151 14.0977 13.6263 14.0977 13.418C14.0977 10.5013 14.7812 8.4375 16.1484 7.22656C17.5286 6.0026 19.7096 5.39062 22.6914 5.39062C24.2539 5.39062 25.6536 5.67057 26.8906 6.23047C28.1276 6.77734 29.1042 7.59115 29.8203 8.67188C30.5495 9.7526 30.9141 11.0872 30.9141 12.6758V35H23.9609V31.5234C23.6224 32.7474 23.0625 33.6849 22.2812 34.3359C21.5 34.987 20.6081 35.3125 19.6055 35.3125ZM22.3594 29.8828C22.9323 29.8828 23.3229 29.6419 23.5312 29.1602C23.7396 28.6784 23.8438 28.1576 23.8438 27.5977V19.4336C22.8802 19.8242 22.1315 20.319 21.5977 20.918C21.0638 21.5039 20.7969 22.3698 20.7969 23.5156V27.2852C20.7969 29.0169 21.3177 29.8828 22.3594 29.8828ZM42.125 35.3125C36.2917 35.3125 33.375 32.2852 33.375 26.2305V14.4727C33.375 11.7122 34.1497 9.51172 35.6992 7.87109C37.2487 6.21745 39.3906 5.39062 42.125 5.39062C44.8724 5.39062 47.0208 6.21745 48.5703 7.87109C50.1198 9.51172 50.8945 11.7122 50.8945 14.4727V26.2305C50.8945 32.2852 47.9714 35.3125 42.125 35.3125ZM42.125 29.9219C42.7109 29.9219 43.1276 29.7135 43.375 29.2969C43.6354 28.8672 43.7656 28.3268 43.7656 27.6758V13.3594C43.7656 11.6536 43.2188 10.8008 42.125 10.8008C41.0312 10.8008 40.4844 11.6536 40.4844 13.3594V27.6758C40.4844 28.3268 40.6081 28.8672 40.8555 29.2969C41.1159 29.7135 41.5391 29.9219 42.125 29.9219ZM59.1367 35.3125C57.5742 35.3125 56.3763 34.987 55.543 34.3359C54.7227 33.6849 54.1628 32.7799 53.8633 31.6211C53.5638 30.4492 53.4141 29.082 53.4141 27.5195V5.70312H60.4453V26.6992C60.4453 27.8711 60.5365 28.6914 60.7188 29.1602C60.901 29.6159 61.3307 29.8438 62.0078 29.8438C62.737 29.8438 63.1927 29.5182 63.375 28.8672C63.5703 28.2161 63.668 27.3763 63.668 26.3477V5.70312H70.6406V35H63.6484V31.875C63.2057 32.9948 62.6719 33.8477 62.0469 34.4336C61.4349 35.0195 60.4648 35.3125 59.1367 35.3125ZM73.4531 35V0.625H80.5625V35H73.4531Z" fill="black"/>
<path d="M83.043 34.9805V29.1602H90.0352V34.9805H83.043Z" fill="#DBBF2D"/>
<path d="M98.5312 35.3125C96.6432 35.3125 95.3672 34.9154 94.7031 34.1211C94.0521 33.3138 93.7266 32.0833 93.7266 30.4297V12.168H91.7539V6.83594H93.7266V0.625H100.523V6.83594H102.496V12.168H100.523V28.7891C100.523 29.2708 100.602 29.6094 100.758 29.8047C100.914 30 101.214 30.0977 101.656 30.0977C101.969 30.0977 102.249 30.0716 102.496 30.0195V34.7852C102.34 34.8372 101.852 34.9349 101.031 35.0781C100.211 35.2344 99.3776 35.3125 98.5312 35.3125ZM112.945 35.3125C110.862 35.3125 109.202 34.9219 107.965 34.1406C106.728 33.3594 105.842 32.2331 105.309 30.7617C104.775 29.2904 104.508 27.5195 104.508 25.4492V13.6719C104.508 10.9505 105.289 8.89323 106.852 7.5C108.414 6.09375 110.562 5.39062 113.297 5.39062C118.922 5.39062 121.734 8.15104 121.734 13.6719V15.8008C121.734 18.3789 121.708 20.1107 121.656 20.9961H111.5V26.6602C111.5 27.181 111.533 27.6953 111.598 28.2031C111.663 28.6979 111.806 29.1081 112.027 29.4336C112.262 29.7591 112.633 29.9219 113.141 29.9219C113.87 29.9219 114.326 29.6094 114.508 28.9844C114.69 28.3464 114.781 27.5195 114.781 26.5039V23.6914H121.734V25.3516C121.734 27.5391 121.461 29.375 120.914 30.8594C120.38 32.3307 119.469 33.444 118.18 34.1992C116.904 34.9414 115.159 35.3125 112.945 35.3125ZM111.461 17.5195H114.781V13.5742C114.781 12.5195 114.651 11.7643 114.391 11.3086C114.13 10.8398 113.74 10.6055 113.219 10.6055C112.659 10.6055 112.223 10.8268 111.91 11.2695C111.611 11.7122 111.461 12.4805 111.461 13.5742V17.5195ZM133.082 35.3125C129.801 35.3125 127.47 34.4727 126.09 32.793C124.723 31.1133 124.039 28.6458 124.039 25.3906V16.3672C124.039 13.9193 124.299 11.8815 124.82 10.2539C125.341 8.6263 126.253 7.40885 127.555 6.60156C128.857 5.79427 130.667 5.39062 132.984 5.39062C134.599 5.39062 136.044 5.67708 137.32 6.25C138.609 6.82292 139.625 7.66276 140.367 8.76953C141.109 9.8763 141.48 11.2305 141.48 12.832V17.3047H134.352V13.2031C134.352 12.526 134.254 11.9596 134.059 11.5039C133.863 11.0352 133.44 10.8008 132.789 10.8008C131.643 10.8008 131.07 11.6146 131.07 13.2422V27.4414C131.07 28.0404 131.201 28.5938 131.461 29.1016C131.721 29.5964 132.151 29.8438 132.75 29.8438C133.362 29.8438 133.785 29.6029 134.02 29.1211C134.267 28.6263 134.391 28.0534 134.391 27.4023V22.4805H141.48V27.5977C141.48 29.2122 141.116 30.599 140.387 31.7578C139.671 32.9036 138.681 33.7826 137.418 34.3945C136.155 35.0065 134.71 35.3125 133.082 35.3125ZM143.922 35V0.625H151.109V8.61328C151.487 7.51953 152.066 6.71224 152.848 6.19141C153.629 5.65755 154.54 5.39062 155.582 5.39062C157.613 5.39062 159.091 6.02865 160.016 7.30469C160.94 8.58073 161.402 10.293 161.402 12.4414V35H154.332V12.8906C154.332 12.2526 154.195 11.7318 153.922 11.3281C153.661 10.9245 153.245 10.7227 152.672 10.7227C152.19 10.7227 151.806 10.931 151.52 11.3477C151.246 11.7643 151.109 12.2591 151.109 12.832V35H143.922Z" fill="#EB4242"/>
</svg>
