<svg width="152" height="36" viewBox="0 0 152 36" fill="none" xmlns="http://www.w3.org/2000/svg">
<path d="M11.2727 31.4261C9.03788 31.4261 7.11553 30.9527 5.50568 30.0057C3.9053 29.0492 2.67424 27.7235 1.8125 26.0284C0.960227 24.3333 0.534091 22.3826 0.534091 20.1761C0.534091 17.9413 0.964962 15.9811 1.8267 14.2955C2.69792 12.6004 3.93371 11.2794 5.53409 10.3324C7.13447 9.37595 9.03788 8.89773 11.2443 8.89773C13.1477 8.89773 14.8144 9.24337 16.2443 9.93466C17.6742 10.6259 18.8059 11.5966 19.6392 12.8466C20.4725 14.0966 20.9318 15.5644 21.017 17.25H15.3068C15.1458 16.161 14.7197 15.285 14.0284 14.6222C13.3466 13.9498 12.4517 13.6136 11.3438 13.6136C10.4062 13.6136 9.58712 13.8693 8.88636 14.3807C8.19508 14.8826 7.6553 15.6165 7.26705 16.5824C6.87879 17.5483 6.68466 18.7178 6.68466 20.0909C6.68466 21.483 6.87405 22.6667 7.25284 23.642C7.6411 24.6174 8.18561 25.3608 8.88636 25.8722C9.58712 26.3835 10.4062 26.6392 11.3438 26.6392C12.035 26.6392 12.6553 26.4972 13.2045 26.2131C13.7633 25.929 14.2225 25.517 14.5824 24.9773C14.9517 24.428 15.1932 23.7699 15.3068 23.0028H21.017C20.9223 24.6695 20.4678 26.1373 19.6534 27.4062C18.8485 28.6657 17.7358 29.6506 16.3153 30.3608C14.8949 31.071 13.214 31.4261 11.2727 31.4261ZM34.7493 31.4261C32.5429 31.4261 30.6347 30.9574 29.0249 30.0199C27.4245 29.0729 26.1887 27.7566 25.3175 26.071C24.4463 24.3759 24.0107 22.411 24.0107 20.1761C24.0107 17.9223 24.4463 15.9527 25.3175 14.267C26.1887 12.572 27.4245 11.2557 29.0249 10.3182C30.6347 9.37121 32.5429 8.89773 34.7493 8.89773C36.9557 8.89773 38.8591 9.37121 40.4595 10.3182C42.0694 11.2557 43.3099 12.572 44.1811 14.267C45.0523 15.9527 45.4879 17.9223 45.4879 20.1761C45.4879 22.411 45.0523 24.3759 44.1811 26.071C43.3099 27.7566 42.0694 29.0729 40.4595 30.0199C38.8591 30.9574 36.9557 31.4261 34.7493 31.4261ZM34.7777 26.7386C35.7815 26.7386 36.6196 26.4545 37.2919 25.8864C37.9643 25.3087 38.4709 24.5227 38.8118 23.5284C39.1622 22.5341 39.3374 21.4025 39.3374 20.1335C39.3374 18.8646 39.1622 17.733 38.8118 16.7386C38.4709 15.7443 37.9643 14.9583 37.2919 14.3807C36.6196 13.803 35.7815 13.5142 34.7777 13.5142C33.7644 13.5142 32.9122 13.803 32.2209 14.3807C31.5391 14.9583 31.023 15.7443 30.6726 16.7386C30.3317 17.733 30.1612 18.8646 30.1612 20.1335C30.1612 21.4025 30.3317 22.5341 30.6726 23.5284C31.023 24.5227 31.5391 25.3087 32.2209 25.8864C32.9122 26.4545 33.7644 26.7386 34.7777 26.7386ZM57.4624 31.3551C55.8052 31.3551 54.3042 30.929 52.9595 30.0767C51.6243 29.215 50.5637 27.9508 49.7777 26.2841C49.0012 24.608 48.6129 22.553 48.6129 20.1193C48.6129 17.6193 49.0154 15.5407 49.8203 13.8835C50.6252 12.2169 51.6953 10.9716 53.0305 10.1477C54.3752 9.31439 55.8478 8.89773 57.4482 8.89773C58.6697 8.89773 59.6877 9.10606 60.5021 9.52273C61.326 9.92992 61.9889 10.4413 62.4908 11.0568C63.0021 11.6629 63.3904 12.2595 63.6555 12.8466H63.8402V1.90909H69.8771V31H63.9112V27.5057H63.6555C63.3714 28.1117 62.969 28.7131 62.4482 29.3097C61.9368 29.8968 61.2692 30.3845 60.4453 30.7727C59.6309 31.161 58.6366 31.3551 57.4624 31.3551ZM59.38 26.5398C60.3554 26.5398 61.1792 26.2746 61.8516 25.7443C62.5334 25.2045 63.0542 24.4517 63.4141 23.4858C63.7834 22.5199 63.968 21.3883 63.968 20.0909C63.968 18.7936 63.7881 17.6667 63.4283 16.7102C63.0684 15.7538 62.5476 15.0152 61.8658 14.4943C61.1839 13.9735 60.3554 13.7131 59.38 13.7131C58.3857 13.7131 57.5476 13.983 56.8658 14.5227C56.1839 15.0625 55.6679 15.8106 55.3175 16.767C54.9671 17.7235 54.7919 18.8314 54.7919 20.0909C54.7919 21.3598 54.9671 22.482 55.3175 23.4574C55.6773 24.4233 56.1934 25.1809 56.8658 25.7301C57.5476 26.2699 58.3857 26.5398 59.38 26.5398Z" fill="#FF0000"/>
<path d="M84.7102 31.4261C82.4754 31.4261 80.553 30.9527 78.9432 30.0057C77.3428 29.0492 76.1117 27.7235 75.25 26.0284C74.3977 24.3333 73.9716 22.3826 73.9716 20.1761C73.9716 17.9413 74.4025 15.9811 75.2642 14.2955C76.1354 12.6004 77.3712 11.2794 78.9716 10.3324C80.572 9.37595 82.4754 8.89773 84.6818 8.89773C86.5852 8.89773 88.2519 9.24337 89.6818 9.93466C91.1117 10.6259 92.2434 11.5966 93.0767 12.8466C93.91 14.0966 94.3693 15.5644 94.4545 17.25H88.7443C88.5833 16.161 88.1572 15.285 87.4659 14.6222C86.7841 13.9498 85.8892 13.6136 84.7812 13.6136C83.8438 13.6136 83.0246 13.8693 82.3239 14.3807C81.6326 14.8826 81.0928 15.6165 80.7045 16.5824C80.3163 17.5483 80.1222 18.7178 80.1222 20.0909C80.1222 21.483 80.3116 22.6667 80.6903 23.642C81.0786 24.6174 81.6231 25.3608 82.3239 25.8722C83.0246 26.3835 83.8438 26.6392 84.7812 26.6392C85.4725 26.6392 86.0928 26.4972 86.642 26.2131C87.2008 25.929 87.66 25.517 88.0199 24.9773C88.3892 24.428 88.6307 23.7699 88.7443 23.0028H94.4545C94.3598 24.6695 93.9053 26.1373 93.0909 27.4062C92.286 28.6657 91.1733 29.6506 89.7528 30.3608C88.3324 31.071 86.6515 31.4261 84.7102 31.4261ZM112.32 21.7102V9.18182H118.371V31H112.562V27.0369H112.335C111.842 28.3153 111.023 29.3428 109.877 30.1193C108.741 30.8958 107.353 31.2841 105.715 31.2841C104.257 31.2841 102.974 30.9527 101.866 30.2898C100.758 29.6269 99.8913 28.6847 99.2663 27.4631C98.6508 26.2415 98.3383 24.7784 98.3288 23.0739V9.18182H104.38V21.9943C104.389 23.2822 104.735 24.3002 105.417 25.0483C106.099 25.7964 107.013 26.1705 108.158 26.1705C108.888 26.1705 109.569 26.0047 110.204 25.6733C110.838 25.3324 111.35 24.8305 111.738 24.1676C112.136 23.5047 112.33 22.6856 112.32 21.7102ZM134.817 9.18182V13.7273H121.678V9.18182H134.817ZM124.661 3.95455H130.712V24.2955C130.712 24.8542 130.797 25.2898 130.967 25.6023C131.138 25.9053 131.375 26.1184 131.678 26.2415C131.99 26.3646 132.35 26.4261 132.757 26.4261C133.041 26.4261 133.325 26.4025 133.609 26.3551C133.893 26.2983 134.111 26.2557 134.263 26.2273L135.214 30.7301C134.911 30.8248 134.485 30.9337 133.936 31.0568C133.387 31.1894 132.719 31.2699 131.933 31.2983C130.475 31.3551 129.196 31.161 128.098 30.7159C127.009 30.2708 126.161 29.5795 125.555 28.642C124.949 27.7045 124.651 26.5208 124.661 25.0909V3.95455Z" fill="white"/>
<path d="M151.429 0.545453L142.054 35.375H136.841L146.216 0.545453H151.429Z" fill="#FEB028"/>
</svg>
