<svg width="417" height="125" viewBox="0 0 417 125" fill="none" xmlns="http://www.w3.org/2000/svg">
<path d="M66.1268 125C56.6321 125 47.8238 123.513 39.7019 120.539C31.6943 117.45 24.7163 113.103 18.7678 107.498C12.9337 101.892 8.35799 95.3148 5.04058 87.7648C1.72316 80.1005 0.0644466 71.6925 0.0644466 62.541C0.0644466 53.3895 1.72316 45.0388 5.04057 37.4888C8.35799 29.8244 12.9337 23.1896 18.7678 17.5843C24.7163 11.979 31.6943 7.68926 39.7019 4.71502C47.8238 1.62639 56.6321 0.0820665 66.1268 0.0820665C77.223 0.0820665 87.1181 2.02677 95.812 5.91616C100.207 7.85673 104.231 10.2244 107.886 13.0193C114.091 17.7648 113.263 26.8144 107.471 32.0553C101.279 37.6576 91.828 36.6024 84.5513 32.5063C84.1328 32.2707 83.711 32.0441 83.2859 31.8263C78.7101 29.424 73.5624 28.2229 67.8427 28.2229C62.9238 28.2229 58.4052 29.0237 54.2871 30.6252C50.1689 32.2267 46.6227 34.5718 43.6485 37.6604C40.7886 40.6346 38.5007 44.2381 36.7848 48.4706C35.1833 52.7032 34.3826 57.3933 34.3826 62.541C34.3826 67.6887 35.1833 72.3789 36.7848 76.6114C38.5007 80.844 40.7886 84.5046 43.6485 87.5933C46.6227 90.5675 50.1689 92.8554 54.2871 94.4569C58.4052 96.0584 62.9238 96.8591 67.8427 96.8591C73.5624 96.8591 78.7101 95.658 83.2859 93.2557C83.7275 93.0295 84.1656 92.7937 84.6002 92.5482C91.8439 88.4561 101.26 87.4074 107.429 92.9892C113.233 98.2401 114.018 107.306 107.792 112.049C104.162 114.813 100.169 117.185 95.812 119.166C87.1181 123.055 77.223 125 66.1268 125Z" fill="url(#paint0_linear_404_15)"/>
<path d="M107.886 51.9954C107.886 55.4504 105.085 58.2513 101.63 58.2513C98.1749 58.2513 95.374 55.4504 95.374 51.9954C95.374 48.5403 98.1749 45.7395 101.63 45.7395C105.085 45.7395 107.886 48.5403 107.886 51.9954Z" fill="url(#paint1_linear_404_15)"/>
<path d="M107.886 73.4442C107.886 76.8992 105.085 79.7001 101.63 79.7001C98.1749 79.7001 95.374 76.8992 95.374 73.4442C95.374 69.9891 98.1749 67.1883 101.63 67.1883C105.085 67.1883 107.886 69.9891 107.886 73.4442Z" fill="url(#paint2_linear_404_15)"/>
<path d="M156.376 91.096C150.68 91.096 145.624 89.944 141.208 87.64C136.792 85.336 133.304 82.168 130.744 78.136C128.248 74.04 127 69.368 127 64.12C127 58.872 128.248 54.232 130.744 50.2C133.304 46.168 136.792 43.032 141.208 40.792C145.624 38.488 150.68 37.336 156.376 37.336C162.072 37.336 167.128 38.488 171.544 40.792C176.024 43.032 179.512 46.168 182.008 50.2C184.504 54.232 185.752 58.872 185.752 64.12C185.752 69.368 184.504 74.04 182.008 78.136C179.512 82.168 176.024 85.336 171.544 87.64C167.128 89.944 162.072 91.096 156.376 91.096ZM156.376 76.6C158.488 76.6 160.344 76.12 161.944 75.16C163.608 74.2 164.92 72.792 165.88 70.936C166.84 69.016 167.32 66.744 167.32 64.12C167.32 61.496 166.84 59.288 165.88 57.496C164.92 55.64 163.608 54.232 161.944 53.272C160.344 52.312 158.488 51.832 156.376 51.832C154.328 51.832 152.472 52.312 150.808 53.272C149.208 54.232 147.896 55.64 146.872 57.496C145.912 59.288 145.432 61.496 145.432 64.12C145.432 66.744 145.912 69.016 146.872 70.936C147.896 72.792 149.208 74.2 150.808 75.16C152.472 76.12 154.328 76.6 156.376 76.6Z" fill="url(#paint3_linear_404_15)"/>
<path d="M216.857 91.096C212.121 91.096 207.801 90.008 203.897 87.832C200.057 85.592 196.986 82.488 194.682 78.52C192.378 74.488 191.226 69.688 191.226 64.12C191.226 58.616 192.378 53.88 194.682 49.912C196.986 45.88 200.057 42.776 203.897 40.6C207.801 38.424 212.121 37.336 216.857 37.336C221.337 37.336 225.114 38.296 228.186 40.216C231.322 42.136 233.69 45.08 235.29 49.048C236.89 53.016 237.689 58.04 237.689 64.12C237.689 70.328 236.921 75.416 235.385 79.384C233.849 83.352 231.546 86.296 228.474 88.216C225.402 90.136 221.529 91.096 216.857 91.096ZM220.698 76.6C222.746 76.6 224.57 76.12 226.17 75.16C227.834 74.2 229.145 72.792 230.105 70.936C231.065 69.016 231.546 66.744 231.546 64.12C231.546 61.496 231.065 59.288 230.105 57.496C229.145 55.64 227.834 54.232 226.17 53.272C224.57 52.312 222.746 51.832 220.698 51.832C218.586 51.832 216.698 52.312 215.034 53.272C213.434 54.232 212.153 55.64 211.193 57.496C210.233 59.288 209.754 61.496 209.754 64.12C209.754 66.744 210.233 69.016 211.193 70.936C212.153 72.792 213.434 74.2 215.034 75.16C216.698 76.12 218.586 76.6 220.698 76.6ZM240.81 91.096C236.011 91.096 232.122 87.2062 232.122 82.408V81.304L232.217 64.12L231.257 46.936V28.12C231.257 23.0832 235.341 19 240.378 19V19C245.414 19 249.498 23.0832 249.498 28.12V82.408C249.498 87.2062 245.608 91.096 240.81 91.096V91.096Z" fill="url(#paint4_linear_404_15)"/>
<path d="M287.825 91.096C282.065 91.096 276.913 89.944 272.369 87.64C267.889 85.336 264.369 82.168 261.809 78.136C259.249 74.04 257.969 69.368 257.969 64.12C257.969 58.872 259.249 54.232 261.809 50.2C264.369 46.168 267.889 43.032 272.369 40.792C276.913 38.488 282.065 37.336 287.825 37.336C293.713 37.336 298.801 38.584 303.089 41.08C305.103 42.2522 306.841 43.6503 308.304 45.2742C311.155 48.4377 309.314 53.1169 305.521 55.0522L304.366 55.6415C300.912 57.4038 296.899 55.5724 293.585 53.56V53.56C291.793 52.408 289.841 51.832 287.729 51.832C285.617 51.832 283.697 52.312 281.969 53.272C280.241 54.232 278.865 55.64 277.841 57.496C276.881 59.288 276.401 61.496 276.401 64.12C276.401 66.808 276.881 69.08 277.841 70.936C278.865 72.792 280.241 74.2 281.969 75.16C283.697 76.12 285.617 76.6 287.729 76.6C289.841 76.6 291.793 76.056 293.585 74.968V74.968C296.877 72.8515 300.938 71.0417 304.424 72.8204L305.521 73.3798C309.314 75.3151 311.155 79.9943 308.304 83.1578C306.841 84.7817 305.103 86.1798 303.089 87.352C298.801 89.848 293.713 91.096 287.825 91.096Z" fill="url(#paint5_linear_404_15)"/>
<path d="M340.964 91.096C336.74 91.096 332.932 90.264 329.54 88.6C326.212 86.936 323.589 84.344 321.669 80.824C319.813 77.24 318.885 72.728 318.885 67.288V47.32C318.885 42.2832 322.968 38.2 328.005 38.2V38.2C333.041 38.2 337.124 42.2832 337.124 47.32V64.312C337.124 68.344 337.861 71.224 339.333 72.952C340.869 74.68 343.012 75.544 345.764 75.544C347.556 75.544 349.189 75.128 350.661 74.296C352.133 73.464 353.316 72.152 354.212 70.36C355.108 68.504 355.557 66.136 355.557 63.256V47.32C355.557 42.2832 359.64 38.2 364.677 38.2V38.2C369.713 38.2 373.797 42.2832 373.797 47.32V81.544C373.797 86.3422 369.907 90.232 365.109 90.232H360.273C358.145 90.232 356.421 88.5072 356.421 86.3796V79.8966C356.421 78.4403 358.249 77.7903 359.168 78.9197V78.9197C359.543 79.3798 359.625 80.016 359.352 80.5426C357.584 83.9501 355.135 86.5399 352.005 88.312C348.613 90.168 344.932 91.096 340.964 91.096Z" fill="url(#paint6_linear_404_15)"/>
<path d="M403.62 91.096C396.964 91.096 391.78 89.464 388.068 86.2C384.356 82.872 382.5 77.88 382.5 71.224V33.978C382.5 28.9412 386.583 24.858 391.62 24.858V24.858C396.657 24.858 400.74 28.9412 400.74 33.978V71.032C400.74 72.888 401.252 74.36 402.276 75.448C403.3 76.472 404.612 76.984 406.212 76.984V76.984C409.17 76.984 412.76 78.1242 413.745 80.9129L414.621 83.3926C415.604 86.1729 414.562 89.3536 411.705 90.0836C411.355 90.1729 410.996 90.2543 410.628 90.328C408.388 90.84 406.052 91.096 403.62 91.096ZM389.272 51.8771C385.525 51.8533 382.5 48.8088 382.5 45.0614V45.0614C382.5 41.2802 385.578 38.2216 389.359 38.2457L405.872 38.3509C409.619 38.3747 412.644 41.4192 412.644 45.1666V45.1666C412.644 48.9479 409.566 52.0064 405.785 51.9823L389.272 51.8771Z" fill="url(#paint7_linear_404_15)"/>
<defs>
<linearGradient id="paint0_linear_404_15" x1="-12.6998" y1="37.5946" x2="107.306" y2="161.176" gradientUnits="userSpaceOnUse">
<stop stop-color="#DB1DFB"/>
<stop offset="1" stop-color="#6583EB"/>
</linearGradient>
<linearGradient id="paint1_linear_404_15" x1="84.5" y1="42" x2="112" y2="64.5" gradientUnits="userSpaceOnUse">
<stop stop-color="#DB1DFB"/>
<stop offset="1" stop-color="#6583EB"/>
</linearGradient>
<linearGradient id="paint2_linear_404_15" x1="80.5" y1="59" x2="115" y2="88.5" gradientUnits="userSpaceOnUse">
<stop stop-color="#DB1DFB"/>
<stop offset="1" stop-color="#6583EB"/>
</linearGradient>
<linearGradient id="paint3_linear_404_15" x1="256.408" y1="-27.2679" x2="217.408" y2="178.732" gradientUnits="userSpaceOnUse">
<stop stop-color="#DB1DFB"/>
<stop offset="1" stop-color="#6583EB"/>
</linearGradient>
<linearGradient id="paint4_linear_404_15" x1="256.408" y1="-27.2679" x2="217.408" y2="178.732" gradientUnits="userSpaceOnUse">
<stop stop-color="#DB1DFB"/>
<stop offset="1" stop-color="#6583EB"/>
</linearGradient>
<linearGradient id="paint5_linear_404_15" x1="256.408" y1="-27.2679" x2="217.408" y2="178.732" gradientUnits="userSpaceOnUse">
<stop stop-color="#DB1DFB"/>
<stop offset="1" stop-color="#6583EB"/>
</linearGradient>
<linearGradient id="paint6_linear_404_15" x1="256.408" y1="-27.2679" x2="217.408" y2="178.732" gradientUnits="userSpaceOnUse">
<stop stop-color="#DB1DFB"/>
<stop offset="1" stop-color="#6583EB"/>
</linearGradient>
<linearGradient id="paint7_linear_404_15" x1="256.408" y1="-27.2679" x2="217.408" y2="178.732" gradientUnits="userSpaceOnUse">
<stop stop-color="#DB1DFB"/>
<stop offset="1" stop-color="#6583EB"/>
</linearGradient>
</defs>
</svg>
